<svg width="1318" height="780" viewBox="0 0 1318 780" fill="none" xmlns="http://www.w3.org/2000/svg">
<path d="M579.248 1219.83C546.961 1190.45 513.368 1162.49 480.873 1133.34C349.881 1015.8 226.74 891.41 114.114 755.303C83.3862 718.169 56.3624 678.934 31.7946 637.117C27.1707 629.247 29.1344 628.027 38.0616 632.704C89.7846 659.807 140.764 687.645 193.91 712.325C403.874 809.827 623.845 883.649 853.863 932.076C907.66 943.403 964.606 946.973 1017.85 959.393C1031.61 962.602 997.603 940.469 986.851 931.748C929.886 885.543 871.378 841.321 813.853 795.827C695.901 702.546 588.851 595.234 484.131 487.306C460.094 462.534 422.13 432.939 407.951 399.298C405.626 393.781 412.441 396.434 415.255 397.344C455.333 410.308 494.094 427.417 533.492 441.903C789.86 536.159 1050.55 611.447 1321.62 664.6C1324.43 665.151 1375.77 679.621 1369.89 668.931C1358 647.351 1332.88 631.987 1315.47 616.039C1251.77 557.693 1192.72 494.113 1134.28 430.378C1043.83 331.724 961.022 226.63 875.079 123.897C847.494 90.9234 818.202 59.445 785.823 31.4901" stroke="#EEEEEE" stroke-width="60" stroke-linecap="round"/>
</svg>
