<svg width="1044" height="780" viewBox="0 0 1044 780" fill="none" xmlns="http://www.w3.org/2000/svg">
<path d="M25.8638 192.052C66.1045 181.108 105.6 169.116 145.721 158.005C307.455 113.215 472.127 74.3322 643.024 43.9458C689.649 35.6555 736.629 29.8887 784.922 26.0709C794.012 25.3523 794.296 26.7149 786.3 30.5396C739.973 52.6994 693.29 74.2796 648.567 97.7833C471.877 190.64 312.495 294.487 171.963 409.743C139.094 436.7 111.949 467.185 78.318 493.585C69.6297 500.405 104.006 486.836 116.44 482.945C182.318 462.33 247.042 440.407 312.509 419.319C446.744 376.079 589.146 342.086 731.13 309.516C763.719 302.04 806.535 288.024 843.042 288.024C849.029 288.024 843.759 291.156 841.751 292.492C813.154 311.526 781.345 328.874 751.65 347.181C558.431 466.305 380.627 592.202 218.57 728.938C216.89 730.356 182.198 755.233 194.377 754.474C218.967 752.94 243.464 742.69 265.258 736.812C344.989 715.307 427.526 697.569 509.943 680.208C637.516 653.334 767.728 632.157 897.112 608.708C938.64 601.182 979.526 592.37 1018.51 581.044" stroke="#F4F4F4" stroke-width="50" stroke-linecap="round"/>
</svg>
